<svg xmlns="http://www.w3.org/2000/svg" xmlns:xlink="http://www.w3.org/1999/xlink" version="1.2" width="37.00mm" height="26.00mm" viewBox="0.0000 -0.0000 21.0550 14.7954">
<style type="text/css">
<![CDATA[
tspan { white-space: pre; }
]]>
</style>
<g transform="translate(2.2762, 5.1381)">
<line stroke-linejoin="round" stroke-linecap="round" stroke-width="0.0966" stroke="currentColor" x1="0.0483" y1="0" x2="15.7238" y2="0"/>
</g>
<g transform="translate(14.6053, 5.1381)">
<path transform="scale(0.0032, -0.0032)" d="M212 138c68 0 113 -38 113 -95c0 -90 -109 -181 -212 -181c-68 0 -113 38 -113 95c0 90 109 181 212 181z" fill="currentColor"/>
</g>
<g transform="translate(15.5855, 5.1381)">
<rect x="-0.0628" y="-3.0000" width="0.1255" height="2.8626" ry="0.0400" fill="currentColor"/>
</g>
<g transform="translate(4.2762, 5.1381)">
<path transform="scale(0.0032, -0.0032)" d="M212 138c68 0 113 -38 113 -95c0 -90 -109 -181 -212 -181c-68 0 -113 38 -113 95c0 90 109 181 212 181z" fill="currentColor"/>
</g>
<g transform="translate(5.2565, 5.1381)">
<rect x="-0.0628" y="-3.0000" width="0.1255" height="2.8626" ry="0.0400" fill="currentColor"/>
</g>
<g transform="translate(7.7192, 5.1381)">
<path transform="scale(0.0032, -0.0032)" d="M212 138c68 0 113 -38 113 -95c0 -90 -109 -181 -212 -181c-68 0 -113 38 -113 95c0 90 109 181 212 181z" fill="currentColor"/>
</g>
<g transform="translate(8.6995, 5.1381)">
<rect x="-0.0628" y="-3.0000" width="0.1255" height="2.8626" ry="0.0400" fill="currentColor"/>
</g>
<g transform="translate(11.1623, 5.1381)">
<path transform="scale(0.0032, -0.0032)" d="M212 138c68 0 113 -38 113 -95c0 -90 -109 -181 -212 -181c-68 0 -113 38 -113 95c0 90 109 181 212 181z" fill="currentColor"/>
</g>
<g transform="translate(12.1425, 5.1381)">
<rect x="-0.0628" y="-3.0000" width="0.1255" height="2.8626" ry="0.0400" fill="currentColor"/>
</g>
</svg>
