<svg xmlns="http://www.w3.org/2000/svg" xmlns:xlink="http://www.w3.org/1999/xlink" version="1.2" width="37.00mm" height="26.00mm" viewBox="0.0000 -0.0000 21.0550 14.7954">
<style type="text/css">
<![CDATA[
tspan { white-space: pre; }
]]>
</style>
<g transform="translate(2.2762, 5.1381)">
<line stroke-linejoin="round" stroke-linecap="round" stroke-width="0.0966" stroke="currentColor" x1="0.0483" y1="0" x2="13.9596" y2="0"/>
</g>
<g transform="translate(16.1006, 5.1381)">
<rect x="0.0000" y="-0.9000" width="0.1835" height="1.8000" ry="0.0000" fill="currentColor"/>
</g>
<g transform="translate(6.6256, 5.1381)">
<path transform="scale(0.0032, -0.0032)" d="M310 63c0 22 -17 40 -40 40c-38 0 -197 -107 -224 -139c-7 -8 -10 -17 -10 -27c0 -22 17 -40 40 -40c38 0 197 107 224 139c7 8 10 17 10 27zM256 138c55 0 90 -22 90 -77c0 -25 -15 -112 -73 -151c-34 -23 -92 -48 -183 -48c-55 0 -90 22 -90 77c0 25 15 112 73 151
c34 23 92 48 183 48z" fill="currentColor"/>
</g>
<g transform="translate(3.2762, 5.1381)">
<path transform="scale(0.0032, -0.0032)" d="M250 265c114 0 172 -112 172 -166c0 -38 -30 -69 -66 -69c-30 0 -72 23 -72 72c0 37 26 75 70 75c3 0 6 -1 9 -1c-26 36 -67 59 -113 59c-107 0 -113 -74 -113 -189c0 -15 1 -30 1 -46s-1 -31 -1 -46c0 -115 6 -189 113 -189c78 0 133 70 151 149c2 8 8 11 14 11
c7 0 15 -5 15 -14c0 -21 -49 -176 -180 -176c-145 0 -250 88 -250 265c0 63 18 265 250 265z" fill="currentColor"/>
</g>
<g transform="translate(7.6724, 5.1381)">
<rect x="-0.0628" y="-3.0000" width="0.1255" height="2.8031" ry="0.0400" fill="currentColor"/>
</g>
<g transform="translate(11.3352, 5.1381)">
<path transform="scale(0.0032, -0.0032)" d="M310 63c0 22 -17 40 -40 40c-38 0 -197 -107 -224 -139c-7 -8 -10 -17 -10 -27c0 -22 17 -40 40 -40c38 0 197 107 224 139c7 8 10 17 10 27zM256 138c55 0 90 -22 90 -77c0 -25 -15 -112 -73 -151c-34 -23 -92 -48 -183 -48c-55 0 -90 22 -90 77c0 25 15 112 73 151
c34 23 92 48 183 48z" fill="currentColor"/>
</g>
<g transform="translate(12.3820, 5.1381)">
<rect x="-0.0628" y="-3.0000" width="0.1255" height="2.8031" ry="0.0400" fill="currentColor"/>
</g>
</svg>
