<svg xmlns="http://www.w3.org/2000/svg" xmlns:xlink="http://www.w3.org/1999/xlink" version="1.2" width="37.00mm" height="26.00mm" viewBox="0.0000 -0.0000 21.0550 14.7954">
<style type="text/css">
<![CDATA[
tspan { white-space: pre; }
]]>
</style>
<g transform="translate(2.2762, 5.1756)">
<line stroke-linejoin="round" stroke-linecap="round" stroke-width="0.0966" stroke="currentColor" x1="0.0483" y1="0" x2="17.5924" y2="0"/>
</g>
<g transform="translate(19.7334, 5.1756)">
<rect x="0.0000" y="-0.9000" width="0.1835" height="1.8000" ry="0.0000" fill="currentColor"/>
</g>
<g transform="translate(6.6256, 5.1756)">
<path transform="scale(0.0032, -0.0032)" d="M212 138c68 0 113 -38 113 -95c0 -90 -109 -181 -212 -181c-68 0 -113 38 -113 95c0 90 109 181 212 181z" fill="currentColor"/>
</g>
<g transform="translate(3.2762, 5.1756)">
<path transform="scale(0.0032, -0.0032)" d="M250 265c114 0 172 -112 172 -166c0 -38 -30 -69 -66 -69c-30 0 -72 23 -72 72c0 37 26 75 70 75c3 0 6 -1 9 -1c-26 36 -67 59 -113 59c-107 0 -113 -74 -113 -189c0 -15 1 -30 1 -46s-1 -31 -1 -46c0 -115 6 -189 113 -189c78 0 133 70 151 149c2 8 8 11 14 11
c7 0 15 -5 15 -14c0 -21 -49 -176 -180 -176c-145 0 -250 88 -250 265c0 63 18 265 250 265z" fill="currentColor"/>
</g>
<g transform="translate(7.6058, 5.1756)">
<rect x="-0.0628" y="-3.0000" width="0.1255" height="2.8626" ry="0.0400" fill="currentColor"/>
</g>
<g transform="translate(10.0248, 5.1756)">
<path transform="scale(0.0032, -0.0032)" d="M212 138c68 0 113 -38 113 -95c0 -90 -109 -181 -212 -181c-68 0 -113 38 -113 95c0 90 109 181 212 181z" fill="currentColor"/>
</g>
<g transform="translate(11.0050, 5.1756)">
<rect x="-0.0628" y="-3.0000" width="0.1255" height="2.8626" ry="0.0400" fill="currentColor"/>
</g>
<g transform="translate(13.4240, 5.1756)">
<path transform="scale(0.0032, -0.0032)" d="M212 138c68 0 113 -38 113 -95c0 -90 -109 -181 -212 -181c-68 0 -113 38 -113 95c0 90 109 181 212 181z" fill="currentColor"/>
</g>
<g transform="translate(14.8210, 4.7256)">
<path transform="scale(0.0032, -0.0032)" d="M0 0c0 30 25 55 55 55s55 -25 55 -55s-25 -55 -55 -55s-55 25 -55 55z" fill="currentColor"/>
</g>
<g transform="translate(14.4042, 5.1756)">
<rect x="-0.0628" y="-3.0000" width="0.1255" height="2.8626" ry="0.0400" fill="currentColor"/>
</g>
<g transform="translate(17.5123, 5.1756)">
<path transform="scale(0.0032, -0.0032)" d="M212 138c68 0 113 -38 113 -95c0 -90 -109 -181 -212 -181c-68 0 -113 38 -113 95c0 90 109 181 212 181z" fill="currentColor"/>
</g>
<g transform="translate(18.4926, 5.1756)">
<rect x="-0.0628" y="-3.0375" width="0.1255" height="2.9001" ry="0.0400" fill="currentColor"/>
</g>
<g transform="translate(18.5554, 2.1781)">
<path transform="scale(0.0032, -0.0032)" d="M0 -250h-19v250h19c0 -197 207 -334 207 -531c0 -71 -15 -140 -41 -206c-5 -9 -14 -13 -22 -13c-14 0 -29 12 -26 30c26 60 43 124 43 189c0 102 -92 206 -161 281z" fill="currentColor"/>
</g>
</svg>
