<svg xmlns="http://www.w3.org/2000/svg" xmlns:xlink="http://www.w3.org/1999/xlink" version="1.2" width="37.00mm" height="26.00mm" viewBox="0.0000 -0.0000 21.0550 14.7954">
<style type="text/css">
<![CDATA[
tspan { white-space: pre; }
]]>
</style>
<g transform="translate(2.2762, 5.1756)">
<line stroke-linejoin="round" stroke-linecap="round" stroke-width="0.0966" stroke="currentColor" x1="0.0483" y1="0" x2="13.9733" y2="0"/>
</g>
<g transform="translate(7.4639, 2.1781)">
<path transform="scale(0.0032, -0.0032)" d="M0 0v-500h-19v500h19zM0 0c0 -177 201 -291 201 -468c0 -33 -9 -66 -23 -96c18 -36 29 -74 29 -116c0 -63 -15 -125 -41 -182c-5 -9 -14 -13 -22 -13c-14 0 -29 12 -26 30c26 51 43 107 43 165c0 96 -92 188 -161 255v213c0 -115 87 -203 148 -298c4 14 6 27 6 42
c0 94 -87 189 -154 256v212z" fill="currentColor"/>
</g>
<g transform="translate(4.2762, 5.1756)">
<path transform="scale(0.0032, -0.0032)" d="M212 138c68 0 113 -38 113 -95c0 -90 -109 -181 -212 -181c-68 0 -113 38 -113 95c0 90 109 181 212 181z" fill="currentColor"/>
</g>
<g transform="translate(5.2565, 5.1756)">
<rect x="-0.0628" y="-3.0375" width="0.1255" height="2.9001" ry="0.0400" fill="currentColor"/>
</g>
<g transform="translate(5.3192, 2.1781)">
<path transform="scale(0.0032, -0.0032)" d="M0 0v-500h-19v500h19zM0 0c0 -177 201 -291 201 -468c0 -33 -9 -66 -23 -96c18 -36 29 -74 29 -116c0 -63 -15 -125 -41 -182c-5 -9 -14 -13 -22 -13c-14 0 -29 12 -26 30c26 51 43 107 43 165c0 96 -92 188 -161 255v213c0 -115 87 -203 148 -298c4 14 6 27 6 42
c0 94 -87 189 -154 256v212z" fill="currentColor"/>
</g>
<g transform="translate(6.4209, 5.1756)">
<path transform="scale(0.0032, -0.0032)" d="M212 138c68 0 113 -38 113 -95c0 -90 -109 -181 -212 -181c-68 0 -113 38 -113 95c0 90 109 181 212 181z" fill="currentColor"/>
</g>
<g transform="translate(7.4011, 5.1756)">
<rect x="-0.0628" y="-3.0375" width="0.1255" height="2.9001" ry="0.0400" fill="currentColor"/>
</g>
<g transform="translate(13.8350, 5.1756)">
<rect x="-0.0628" y="-3.0000" width="0.1255" height="2.8626" ry="0.0400" fill="currentColor"/>
</g>
<g transform="translate(8.5655, 5.1756)">
<path transform="scale(0.0032, -0.0032)" d="M212 138c68 0 113 -38 113 -95c0 -90 -109 -181 -212 -181c-68 0 -113 38 -113 95c0 90 109 181 212 181z" fill="currentColor"/>
</g>
<g transform="translate(9.5457, 5.1756)">
<rect x="-0.0628" y="-3.0375" width="0.1255" height="2.9001" ry="0.0400" fill="currentColor"/>
</g>
<g transform="translate(9.6085, 2.1781)">
<path transform="scale(0.0032, -0.0032)" d="M0 0v-500h-19v500h19zM0 0c0 -177 201 -291 201 -468c0 -33 -9 -66 -23 -96c18 -36 29 -74 29 -116c0 -63 -15 -125 -41 -182c-5 -9 -14 -13 -22 -13c-14 0 -29 12 -26 30c26 51 43 107 43 165c0 96 -92 188 -161 255v213c0 -115 87 -203 148 -298c4 14 6 27 6 42
c0 94 -87 189 -154 256v212z" fill="currentColor"/>
</g>
<g transform="translate(12.8547, 5.1756)">
<path transform="scale(0.0032, -0.0032)" d="M212 138c68 0 113 -38 113 -95c0 -90 -109 -181 -212 -181c-68 0 -113 38 -113 95c0 90 109 181 212 181z" fill="currentColor"/>
</g>
<g transform="translate(10.7101, 5.1756)">
<path transform="scale(0.0032, -0.0032)" d="M212 138c68 0 113 -38 113 -95c0 -90 -109 -181 -212 -181c-68 0 -113 38 -113 95c0 90 109 181 212 181z" fill="currentColor"/>
</g>
<g transform="translate(11.6904, 5.1756)">
<rect x="-0.0628" y="-3.0375" width="0.1255" height="2.9001" ry="0.0400" fill="currentColor"/>
</g>
<g transform="translate(11.7531, 2.1781)">
<path transform="scale(0.0032, -0.0032)" d="M0 0v-500h-19v500h19zM0 0c0 -177 201 -291 201 -468c0 -33 -9 -66 -23 -96c18 -36 29 -74 29 -116c0 -63 -15 -125 -41 -182c-5 -9 -14 -13 -22 -13c-14 0 -29 12 -26 30c26 51 43 107 43 165c0 96 -92 188 -161 255v213c0 -115 87 -203 148 -298c4 14 6 27 6 42
c0 94 -87 189 -154 256v212z" fill="currentColor"/>
</g>
</svg>
