<svg xmlns="http://www.w3.org/2000/svg" xmlns:xlink="http://www.w3.org/1999/xlink" version="1.2" width="37.00mm" height="26.00mm" viewBox="0.0000 -0.0000 21.0550 14.7954">
<style type="text/css">
<![CDATA[
tspan { white-space: pre; }
]]>
</style>
<g transform="translate(2.2762, 5.1756)">
<line stroke-linejoin="round" stroke-linecap="round" stroke-width="0.0966" stroke="currentColor" x1="0.0483" y1="0" x2="14.1612" y2="0"/>
</g>
<g transform="translate(16.3023, 5.1756)">
<rect x="0.0000" y="-0.9000" width="0.1835" height="1.8000" ry="0.0000" fill="currentColor"/>
</g>
<g transform="translate(6.4712, 5.1756)">
<path transform="scale(0.0032, -0.0032)" d="M212 138c68 0 113 -38 113 -95c0 -90 -109 -181 -212 -181c-68 0 -113 38 -113 95c0 90 109 181 212 181z" fill="currentColor"/>
</g>
<g transform="translate(3.3274, 5.1756)">
<path transform="scale(0.0032, -0.0032)" d="M173 259c-47 0 -50 -38 -50 -88v-29v-29c0 -50 3 -87 50 -87c56 0 58 50 58 116s-2 117 -58 117zM122 270c15 9 32 14 51 14c103 0 173 -46 173 -142s-70 -142 -173 -142c-113 0 -173 124 -173 250c0 129 75 250 194 250c71 0 138 -41 138 -106c0 -35 -29 -64 -64 -64
s-64 29 -64 64c0 23 38 25 38 48c0 21 -24 32 -48 32c-63 0 -73 -59 -73 -130c0 -24 1 -49 1 -74z" fill="currentColor"/>
</g>
<g transform="translate(3.2762, 6.7794)">
<path transform="scale(0.0032, -0.0032)" d="M263 292c24 29 43 61 43 99c0 52 -55 83 -112 83c-45 0 -71 -35 -71 -68c0 -20 10 -38 30 -50zM297 272c25 -14 81 -55 81 -126c0 -74 -67 -146 -192 -146c-96 0 -186 53 -186 141c0 49 36 87 72 122c-36 28 -55 65 -55 102c0 68 61 135 177 135c81 0 160 -37 160 -109
c0 -46 -26 -85 -57 -119zM105 242c-30 -29 -57 -60 -57 -101c0 -68 66 -115 138 -115c53 0 85 41 85 80c0 23 -11 47 -34 60z" fill="currentColor"/>
</g>
<g transform="translate(7.8682, 4.7256)">
<path transform="scale(0.0032, -0.0032)" d="M0 0c0 30 25 55 55 55s55 -25 55 -55s-25 -55 -55 -55s-55 25 -55 55z" fill="currentColor"/>
</g>
<g transform="translate(7.4515, 5.1756)">
<rect x="-0.0628" y="-3.0000" width="0.1255" height="2.8626" ry="0.0400" fill="currentColor"/>
</g>
<g transform="translate(10.6162, 5.1756)">
<path transform="scale(0.0032, -0.0032)" d="M212 138c68 0 113 -38 113 -95c0 -90 -109 -181 -212 -181c-68 0 -113 38 -113 95c0 90 109 181 212 181z" fill="currentColor"/>
</g>
<g transform="translate(11.5965, 5.1756)">
<rect x="-0.0628" y="-3.0000" width="0.1255" height="2.8626" ry="0.0400" fill="currentColor"/>
</g>
<g transform="translate(14.0592, 5.1756)">
<path transform="scale(0.0032, -0.0032)" d="M212 138c68 0 113 -38 113 -95c0 -90 -109 -181 -212 -181c-68 0 -113 38 -113 95c0 90 109 181 212 181z" fill="currentColor"/>
</g>
<g transform="translate(15.0395, 5.1756)">
<rect x="-0.0628" y="-3.0375" width="0.1255" height="2.9001" ry="0.0400" fill="currentColor"/>
</g>
<g transform="translate(15.1023, 2.1781)">
<path transform="scale(0.0032, -0.0032)" d="M0 -250h-19v250h19c0 -197 207 -334 207 -531c0 -71 -15 -140 -41 -206c-5 -9 -14 -13 -22 -13c-14 0 -29 12 -26 30c26 60 43 124 43 189c0 102 -92 206 -161 281z" fill="currentColor"/>
</g>
</svg>
