<svg xmlns="http://www.w3.org/2000/svg" xmlns:xlink="http://www.w3.org/1999/xlink" version="1.2" width="37.00mm" height="26.00mm" viewBox="0.0000 -0.0000 21.0550 14.7954">
<style type="text/css">
<![CDATA[
tspan { white-space: pre; }
]]>
</style>
<g transform="translate(2.2762, 6.7780)">
<line stroke-linejoin="round" stroke-linecap="round" stroke-width="0.0966" stroke="currentColor" x1="0.0483" y1="0" x2="17.5924" y2="0"/>
</g>
<g transform="translate(11.3367, 6.7780)">
<rect x="-0.0628" y="-3.0375" width="0.1255" height="2.9001" ry="0.0400" fill="currentColor"/>
</g>
<g transform="translate(13.2185, 4.0780)">
<polygon stroke-linejoin="round" stroke-linecap="round" stroke-width="0.0800" fill="currentColor" stroke="currentColor" points="1.7025 -0.1760 1.7025 0.1760 0.0400 0.1760 0.0400 -0.1760"/>
</g>
<g transform="translate(9.0335, 3.0845)">
<text font-family="serif" font-style="italic" font-size="1.4004" text-anchor="start" fill="currentColor">
<tspan>3</tspan>
</text>
</g>
<g transform="translate(4.2762, 6.7780)">
<path transform="scale(0.0032, -0.0032)" d="M212 138c68 0 113 -38 113 -95c0 -90 -109 -181 -212 -181c-68 0 -113 38 -113 95c0 90 109 181 212 181z" fill="currentColor"/>
</g>
<g transform="translate(5.2565, 6.7780)">
<rect x="-0.0628" y="-3.0000" width="0.1255" height="2.8626" ry="0.0400" fill="currentColor"/>
</g>
<g transform="translate(7.3846, 2.6195)">
<line stroke-linejoin="round" stroke-linecap="round" stroke-width="0.1545" stroke="currentColor" x1="4.1948" y1="-0.0000" x2="4.1948" y2="0.6300"/>
</g>
<g transform="translate(7.3846, 2.6195)">
<line stroke-linejoin="round" stroke-linecap="round" stroke-width="0.1545" stroke="currentColor" x1="-0.1800" y1="-0.0000" x2="-0.1800" y2="0.6300"/>
</g>
<g transform="translate(7.3846, 2.6195)">
<line stroke-linejoin="round" stroke-linecap="round" stroke-width="0.1545" stroke="currentColor" x1="4.1948" y1="-0.0000" x2="2.9659" y2="-0.0000"/>
</g>
<g transform="translate(7.3846, 2.6195)">
<line stroke-linejoin="round" stroke-linecap="round" stroke-width="0.1545" stroke="currentColor" x1="-0.1800" y1="-0.0000" x2="1.2489" y2="-0.0000"/>
</g>
<g transform="translate(6.4672, 6.7780)">
<path transform="scale(0.0032, -0.0032)" d="M212 138c68 0 113 -38 113 -95c0 -90 -109 -181 -212 -181c-68 0 -113 38 -113 95c0 90 109 181 212 181z" fill="currentColor"/>
</g>
<g transform="translate(7.4474, 6.7780)">
<rect x="-0.0628" y="-3.0375" width="0.1255" height="2.9001" ry="0.0400" fill="currentColor"/>
</g>
<g transform="translate(7.5102, 3.7805)">
<path transform="scale(0.0032, -0.0032)" d="M0 -250h-19v250h19c0 -197 207 -334 207 -531c0 -71 -15 -140 -41 -206c-5 -9 -14 -13 -22 -13c-14 0 -29 12 -26 30c26 60 43 124 43 189c0 102 -92 206 -161 281z" fill="currentColor"/>
</g>
<g transform="translate(8.4118, 6.7780)">
<path transform="scale(0.0032, -0.0032)" d="M212 138c68 0 113 -38 113 -95c0 -90 -109 -181 -212 -181c-68 0 -113 38 -113 95c0 90 109 181 212 181z" fill="currentColor"/>
</g>
<g transform="translate(9.3921, 6.7780)">
<rect x="-0.0628" y="-3.0375" width="0.1255" height="2.9001" ry="0.0400" fill="currentColor"/>
</g>
<g transform="translate(9.4548, 3.7805)">
<path transform="scale(0.0032, -0.0032)" d="M0 -250h-19v250h19c0 -197 207 -334 207 -531c0 -71 -15 -140 -41 -206c-5 -9 -14 -13 -22 -13c-14 0 -29 12 -26 30c26 60 43 124 43 189c0 102 -92 206 -161 281z" fill="currentColor"/>
</g>
<g transform="translate(10.3564, 6.7780)">
<path transform="scale(0.0032, -0.0032)" d="M212 138c68 0 113 -38 113 -95c0 -90 -109 -181 -212 -181c-68 0 -113 38 -113 95c0 90 109 181 212 181z" fill="currentColor"/>
</g>
<g transform="translate(11.3995, 3.7805)">
<path transform="scale(0.0032, -0.0032)" d="M0 -250h-19v250h19c0 -197 207 -334 207 -531c0 -71 -15 -140 -41 -206c-5 -9 -14 -13 -22 -13c-14 0 -29 12 -26 30c26 60 43 124 43 189c0 102 -92 206 -161 281z" fill="currentColor"/>
</g>
<g transform="translate(12.3011, 6.7780)">
<path transform="scale(0.0032, -0.0032)" d="M212 138c68 0 113 -38 113 -95c0 -90 -109 -181 -212 -181c-68 0 -113 38 -113 95c0 90 109 181 212 181z" fill="currentColor"/>
</g>
<g transform="translate(13.2813, 6.7780)">
<rect x="-0.0628" y="-2.7000" width="0.1255" height="2.5626" ry="0.0400" fill="currentColor"/>
</g>
<g transform="translate(18.7062, 6.7780)">
<rect x="-0.0628" y="-3.0000" width="0.1255" height="2.8626" ry="0.0400" fill="currentColor"/>
</g>
<g transform="translate(13.9180, 6.7780)">
<path transform="scale(0.0032, -0.0032)" d="M212 138c68 0 113 -38 113 -95c0 -90 -109 -181 -212 -181c-68 0 -113 38 -113 95c0 90 109 181 212 181z" fill="currentColor"/>
</g>
<g transform="translate(14.8983, 6.7780)">
<rect x="-0.0628" y="-2.7000" width="0.1255" height="2.5626" ry="0.0400" fill="currentColor"/>
</g>
<g transform="translate(17.7260, 6.7780)">
<path transform="scale(0.0032, -0.0032)" d="M212 138c68 0 113 -38 113 -95c0 -90 -109 -181 -212 -181c-68 0 -113 38 -113 95c0 90 109 181 212 181z" fill="currentColor"/>
</g>
<g transform="translate(15.5350, 6.7780)">
<path transform="scale(0.0032, -0.0032)" d="M212 138c68 0 113 -38 113 -95c0 -90 -109 -181 -212 -181c-68 0 -113 38 -113 95c0 90 109 181 212 181z" fill="currentColor"/>
</g>
<g transform="translate(16.5153, 6.7780)">
<rect x="-0.0628" y="-3.0000" width="0.1255" height="2.8626" ry="0.0400" fill="currentColor"/>
</g>
</svg>
