<svg xmlns="http://www.w3.org/2000/svg" xmlns:xlink="http://www.w3.org/1999/xlink" version="1.2" width="37.00mm" height="26.00mm" viewBox="0.0000 -0.0000 21.0550 14.7954">
<style type="text/css">
<![CDATA[
tspan { white-space: pre; }
]]>
</style>
<g transform="translate(2.2762, 5.1381)">
<line stroke-linejoin="round" stroke-linecap="round" stroke-width="0.0966" stroke="currentColor" x1="0.0483" y1="0" x2="16.1360" y2="0"/>
</g>
<g transform="translate(18.2770, 5.1381)">
<rect x="0.0000" y="-0.9000" width="0.1835" height="1.8000" ry="0.0000" fill="currentColor"/>
</g>
<g transform="translate(6.6256, 5.1381)">
<path transform="scale(0.0032, -0.0032)" d="M212 138c68 0 113 -38 113 -95c0 -90 -109 -181 -212 -181c-68 0 -113 38 -113 95c0 90 109 181 212 181z" fill="currentColor"/>
</g>
<g transform="translate(3.2762, 5.1381)">
<path transform="scale(0.0032, -0.0032)" d="M356 30c-30 0 -72 23 -72 72c0 37 26 75 70 75c3 0 6 -1 9 -1c-26 36 -67 59 -113 59h-16v-470h16c78 0 133 70 151 149c2 8 8 11 14 11c7 0 15 -5 15 -14c0 -21 -49 -176 -180 -176c-5 0 -11 1 -16 1v-73c0 -7 -5 -13 -12 -13h-17c-7 0 -12 6 -12 13v77
c-65 12 -193 61 -193 260c0 76 22 229 193 260v77c0 7 5 13 12 13h17c7 0 12 -6 12 -13v-73c5 0 11 1 16 1c114 0 172 -112 172 -166c0 -38 -30 -69 -66 -69zM193 -225v449c-51 -25 -56 -89 -56 -178c0 -15 1 -30 1 -46s-1 -31 -1 -46c0 -89 5 -154 56 -179z" fill="currentColor"/>
</g>
<g transform="translate(7.6058, 5.1381)">
<rect x="-0.0628" y="-3.0000" width="0.1255" height="2.8626" ry="0.0400" fill="currentColor"/>
</g>
<g transform="translate(10.0686, 5.1381)">
<path transform="scale(0.0032, -0.0032)" d="M212 138c68 0 113 -38 113 -95c0 -90 -109 -181 -212 -181c-68 0 -113 38 -113 95c0 90 109 181 212 181z" fill="currentColor"/>
</g>
<g transform="translate(11.0489, 5.1381)">
<rect x="-0.0628" y="-3.0000" width="0.1255" height="2.8626" ry="0.0400" fill="currentColor"/>
</g>
<g transform="translate(13.5116, 5.1381)">
<path transform="scale(0.0032, -0.0032)" d="M310 63c0 22 -17 40 -40 40c-38 0 -197 -107 -224 -139c-7 -8 -10 -17 -10 -27c0 -22 17 -40 40 -40c38 0 197 107 224 139c7 8 10 17 10 27zM256 138c55 0 90 -22 90 -77c0 -25 -15 -112 -73 -151c-34 -23 -92 -48 -183 -48c-55 0 -90 22 -90 77c0 25 15 112 73 151
c34 23 92 48 183 48z" fill="currentColor"/>
</g>
<g transform="translate(14.5585, 5.1381)">
<rect x="-0.0628" y="-3.0000" width="0.1255" height="2.8031" ry="0.0400" fill="currentColor"/>
</g>
</svg>
