<svg xmlns="http://www.w3.org/2000/svg" xmlns:xlink="http://www.w3.org/1999/xlink" version="1.2" width="37.00mm" height="26.00mm" viewBox="0.0000 -0.0000 21.0550 14.7954">
<style type="text/css">
<![CDATA[
tspan { white-space: pre; }
]]>
</style>
<g transform="translate(2.2762, 6.7780)">
<line stroke-linejoin="round" stroke-linecap="round" stroke-width="0.0966" stroke="currentColor" x1="0.0483" y1="0" x2="17.6947" y2="0"/>
</g>
<g transform="translate(11.4365, 6.7780)">
<rect x="-0.0628" y="-2.8677" width="0.1255" height="2.7303" ry="0.0400" fill="currentColor"/>
</g>
<g transform="translate(15.7086, 3.0845)">
<text font-family="serif" font-style="italic" font-size="1.4004" text-anchor="start" fill="currentColor">
<tspan>3</tspan>
</text>
</g>
<g transform="translate(14.0598, 2.6195)">
<line stroke-linejoin="round" stroke-linecap="round" stroke-width="0.1545" stroke="currentColor" x1="4.1948" y1="-0.0000" x2="4.1948" y2="0.6300"/>
</g>
<g transform="translate(14.0598, 2.6195)">
<line stroke-linejoin="round" stroke-linecap="round" stroke-width="0.1545" stroke="currentColor" x1="-0.1800" y1="-0.0000" x2="-0.1800" y2="0.6300"/>
</g>
<g transform="translate(14.0598, 2.6195)">
<line stroke-linejoin="round" stroke-linecap="round" stroke-width="0.1545" stroke="currentColor" x1="4.1948" y1="-0.0000" x2="2.9659" y2="-0.0000"/>
</g>
<g transform="translate(14.0598, 2.6195)">
<line stroke-linejoin="round" stroke-linecap="round" stroke-width="0.1545" stroke="currentColor" x1="-0.1800" y1="-0.0000" x2="1.2489" y2="-0.0000"/>
</g>
<g transform="translate(4.2762, 6.7780)">
<path transform="scale(0.0032, -0.0032)" d="M212 138c68 0 113 -38 113 -95c0 -90 -109 -181 -212 -181c-68 0 -113 38 -113 95c0 90 109 181 212 181z" fill="currentColor"/>
</g>
<g transform="translate(5.2565, 6.7780)">
<rect x="-0.0628" y="-3.0000" width="0.1255" height="2.8626" ry="0.0400" fill="currentColor"/>
</g>
<g transform="translate(11.3737, 3.9103)">
<polygon stroke-linejoin="round" stroke-linecap="round" stroke-width="0.0800" fill="currentColor" stroke="currentColor" points="1.4286 -0.1760 1.4286 0.1760 0.0400 0.1760 0.0400 -0.1760"/>
</g>
<g transform="translate(11.3737, 4.6426)">
<polygon stroke-linejoin="round" stroke-linecap="round" stroke-width="0.0800" fill="currentColor" stroke="currentColor" points="1.4286 -0.1760 1.4286 0.1760 0.0400 0.1760 0.0400 -0.1760"/>
</g>
<g transform="translate(5.6192, 6.7780)">
<path transform="scale(0.0032, -0.0032)" d="M212 138c68 0 113 -38 113 -95c0 -90 -109 -181 -212 -181c-68 0 -113 38 -113 95c0 90 109 181 212 181z" fill="currentColor"/>
</g>
<g transform="translate(6.5995, 6.7780)">
<rect x="-0.0628" y="-2.7000" width="0.1255" height="2.5626" ry="0.0400" fill="currentColor"/>
</g>
<g transform="translate(6.5367, 4.0780)">
<polygon stroke-linejoin="round" stroke-linecap="round" stroke-width="0.0800" fill="currentColor" stroke="currentColor" points="1.4286 -0.1760 1.4286 0.1760 0.0400 0.1760 0.0400 -0.1760"/>
</g>
<g transform="translate(6.9623, 6.7780)">
<path transform="scale(0.0032, -0.0032)" d="M212 138c68 0 113 -38 113 -95c0 -90 -109 -181 -212 -181c-68 0 -113 38 -113 95c0 90 109 181 212 181z" fill="currentColor"/>
</g>
<g transform="translate(7.9425, 6.7780)">
<rect x="-0.0628" y="-2.7000" width="0.1255" height="2.5626" ry="0.0400" fill="currentColor"/>
</g>
<g transform="translate(8.3053, 6.7780)">
<path transform="scale(0.0032, -0.0032)" d="M212 138c68 0 113 -38 113 -95c0 -90 -109 -181 -212 -181c-68 0 -113 38 -113 95c0 90 109 181 212 181z" fill="currentColor"/>
</g>
<g transform="translate(9.7023, 6.3280)">
<path transform="scale(0.0032, -0.0032)" d="M0 0c0 30 25 55 55 55s55 -25 55 -55s-25 -55 -55 -55s-55 25 -55 55z" fill="currentColor"/>
</g>
<g transform="translate(9.2855, 6.7780)">
<rect x="-0.0628" y="-3.0000" width="0.1255" height="2.8626" ry="0.0400" fill="currentColor"/>
</g>
<g transform="translate(10.4562, 6.7780)">
<path transform="scale(0.0032, -0.0032)" d="M212 138c68 0 113 -38 113 -95c0 -90 -109 -181 -212 -181c-68 0 -113 38 -113 95c0 90 109 181 212 181z" fill="currentColor"/>
</g>
<g transform="translate(11.7992, 6.7780)">
<path transform="scale(0.0032, -0.0032)" d="M212 138c68 0 113 -38 113 -95c0 -90 -109 -181 -212 -181c-68 0 -113 38 -113 95c0 90 109 181 212 181z" fill="currentColor"/>
</g>
<g transform="translate(12.7795, 6.7780)">
<rect x="-0.0628" y="-2.8677" width="0.1255" height="2.7303" ry="0.0400" fill="currentColor"/>
</g>
<g transform="translate(19.9564, 6.7780)">
<rect x="-0.0628" y="-3.0000" width="0.1255" height="2.8626" ry="0.0400" fill="currentColor"/>
</g>
<g transform="translate(13.1423, 6.7780)">
<path transform="scale(0.0032, -0.0032)" d="M212 138c68 0 113 -38 113 -95c0 -90 -109 -181 -212 -181c-68 0 -113 38 -113 95c0 90 109 181 212 181z" fill="currentColor"/>
</g>
<g transform="translate(14.1225, 6.7780)">
<rect x="-0.0628" y="-3.0375" width="0.1255" height="2.9001" ry="0.0400" fill="currentColor"/>
</g>
<g transform="translate(14.1853, 3.7805)">
<path transform="scale(0.0032, -0.0032)" d="M0 -250h-19v250h19c0 -197 207 -334 207 -531c0 -71 -15 -140 -41 -206c-5 -9 -14 -13 -22 -13c-14 0 -29 12 -26 30c26 60 43 124 43 189c0 102 -92 206 -161 281z" fill="currentColor"/>
</g>
<g transform="translate(18.9762, 6.7780)">
<path transform="scale(0.0032, -0.0032)" d="M212 138c68 0 113 -38 113 -95c0 -90 -109 -181 -212 -181c-68 0 -113 38 -113 95c0 90 109 181 212 181z" fill="currentColor"/>
</g>
<g transform="translate(15.0869, 6.7780)">
<path transform="scale(0.0032, -0.0032)" d="M212 138c68 0 113 -38 113 -95c0 -90 -109 -181 -212 -181c-68 0 -113 38 -113 95c0 90 109 181 212 181z" fill="currentColor"/>
</g>
<g transform="translate(16.0672, 6.7780)">
<rect x="-0.0628" y="-3.0375" width="0.1255" height="2.9001" ry="0.0400" fill="currentColor"/>
</g>
<g transform="translate(16.1299, 3.7805)">
<path transform="scale(0.0032, -0.0032)" d="M0 -250h-19v250h19c0 -197 207 -334 207 -531c0 -71 -15 -140 -41 -206c-5 -9 -14 -13 -22 -13c-14 0 -29 12 -26 30c26 60 43 124 43 189c0 102 -92 206 -161 281z" fill="currentColor"/>
</g>
<g transform="translate(17.0315, 6.7780)">
<path transform="scale(0.0032, -0.0032)" d="M212 138c68 0 113 -38 113 -95c0 -90 -109 -181 -212 -181c-68 0 -113 38 -113 95c0 90 109 181 212 181z" fill="currentColor"/>
</g>
<g transform="translate(18.0118, 6.7780)">
<rect x="-0.0628" y="-3.0375" width="0.1255" height="2.9001" ry="0.0400" fill="currentColor"/>
</g>
<g transform="translate(18.0746, 3.7805)">
<path transform="scale(0.0032, -0.0032)" d="M0 -250h-19v250h19c0 -197 207 -334 207 -531c0 -71 -15 -140 -41 -206c-5 -9 -14 -13 -22 -13c-14 0 -29 12 -26 30c26 60 43 124 43 189c0 102 -92 206 -161 281z" fill="currentColor"/>
</g>
</svg>
