<svg xmlns="http://www.w3.org/2000/svg" xmlns:xlink="http://www.w3.org/1999/xlink" version="1.2" width="120.00mm" height="30.00mm" viewBox="0.0000 -0.0000 68.2866 17.0717">
<style type="text/css">
<![CDATA[
tspan { white-space: pre; }
]]>
</style>
<g transform="translate(17.5036, 4.5691)">
<rect x="0.0000" y="-0.9000" width="0.1835" height="1.8000" ry="0.0000" fill="currentColor"/>
</g>
<g transform="translate(45.3877, 4.5691)">
<rect x="0.0000" y="-0.9000" width="0.1835" height="1.8000" ry="0.0000" fill="currentColor"/>
</g>
<g transform="translate(32.1241, 4.5691)">
<rect x="0.0000" y="-0.9000" width="0.1835" height="1.8000" ry="0.0000" fill="currentColor"/>
</g>
<g transform="translate(6.2596, 4.5691)">
<line stroke-linejoin="round" stroke-linecap="round" stroke-width="0.0966" stroke="currentColor" x1="0.0483" y1="0" x2="39.2633" y2="0"/>
</g>
<g transform="translate(29.6008, 4.5691)">
<rect x="-0.0628" y="-3.0000" width="0.1255" height="2.8626" ry="0.0400" fill="currentColor"/>
</g>
<g transform="translate(43.0841, 4.5691)">
<path transform="scale(0.0032, -0.0032)" d="M212 138c68 0 113 -38 113 -95c0 -90 -109 -181 -212 -181c-68 0 -113 38 -113 95c0 90 109 181 212 181z" fill="currentColor"/>
</g>
<g transform="translate(10.5571, 4.5691)">
<path transform="scale(0.0032, -0.0032)" d="M212 138c68 0 113 -38 113 -95c0 -90 -109 -181 -212 -181c-68 0 -113 38 -113 95c0 90 109 181 212 181z" fill="currentColor"/>
</g>
<g transform="translate(7.3108, 4.5691)">
<path transform="scale(0.0032, -0.0032)" d="M231 0c-90 0 -91 68 -144 68c-29 0 -58 -21 -61 -56c-1 -8 -7 -12 -13 -12c-7 0 -13 5 -13 13c0 154 232 168 232 342c0 58 -14 119 -64 119c-27 0 -54 -13 -54 -38c0 -27 34 -40 34 -67c0 -37 -30 -67 -67 -67s-68 30 -68 67c0 77 74 131 155 131c96 0 186 -56 186 -145
c0 -147 -141 -158 -239 -213c6 1 11 1 17 1c85 0 112 -60 171 -60c49 0 38 40 57 40c7 0 13 -5 13 -13c0 -23 -45 -110 -142 -110z" fill="currentColor"/>
</g>
<g transform="translate(7.2596, 6.1825)">
<path transform="scale(0.0032, -0.0032)" d="M223 487c37 0 71 14 79 14c9 0 15 -7 15 -13c0 -2 0 -4 -2 -6l-283 -325h160v115c0 36 36 28 71 75c23 31 24 58 38 58c7 0 14 -5 14 -15v-233h76c11 0 16 -8 16 -16s-5 -16 -16 -16h-76v-2c0 -50 30 -97 77 -97c9 0 12 -7 12 -13s-3 -13 -12 -13c-46 0 -92 13 -138 13
s-93 -13 -139 -13c-9 0 -12 7 -12 13s3 13 12 13c47 0 77 47 77 97v2h-160c-26 0 -34 15 -34 25c0 12 133 136 133 332c0 11 8 21 18 18c24 -7 49 -13 74 -13z" fill="currentColor"/>
</g>
<g transform="translate(11.5373, 4.5691)">
<rect x="-0.0628" y="-3.0000" width="0.1255" height="2.8626" ry="0.0400" fill="currentColor"/>
</g>
<g transform="translate(14.0001, 4.5691)">
<path transform="scale(0.0032, -0.0032)" d="M212 138c68 0 113 -38 113 -95c0 -90 -109 -181 -212 -181c-68 0 -113 38 -113 95c0 90 109 181 212 181z" fill="currentColor"/>
</g>
<g transform="translate(14.9803, 4.5691)">
<rect x="-0.0628" y="-3.0000" width="0.1255" height="2.8626" ry="0.0400" fill="currentColor"/>
</g>
<g transform="translate(21.7346, 4.5691)">
<path transform="scale(0.0032, -0.0032)" d="M212 138c68 0 113 -38 113 -95c0 -90 -109 -181 -212 -181c-68 0 -113 38 -113 95c0 90 109 181 212 181z" fill="currentColor"/>
</g>
<g transform="translate(18.5395, 4.5691)">
<path transform="scale(0.0032, -0.0032)" d="M266 265c0 -36 73 -25 73 -125c0 -93 -81 -140 -182 -140c-80 0 -157 43 -157 116c0 35 29 64 64 64s64 -29 64 -64c0 -24 -39 -29 -39 -53c0 -29 35 -37 68 -37c47 0 59 59 59 114v28c0 47 -2 81 -46 81h-77c-11 0 -16 8 -16 16s5 16 16 16h77c44 0 46 37 46 86v19
c0 53 -15 88 -63 88c-30 0 -62 -8 -62 -34c0 -21 35 -25 35 -46c0 -31 -25 -56 -56 -56s-56 25 -56 56c0 65 68 106 139 106c92 0 171 -32 171 -114c0 -117 -58 -79 -58 -121z" fill="currentColor"/>
</g>
<g transform="translate(18.4371, 6.1825)">
<path transform="scale(0.0032, -0.0032)" d="M223 487c37 0 71 14 79 14c9 0 15 -7 15 -13c0 -2 0 -4 -2 -6l-283 -325h160v115c0 36 36 28 71 75c23 31 24 58 38 58c7 0 14 -5 14 -15v-233h76c11 0 16 -8 16 -16s-5 -16 -16 -16h-76v-2c0 -50 30 -97 77 -97c9 0 12 -7 12 -13s-3 -13 -12 -13c-46 0 -92 13 -138 13
s-93 -13 -139 -13c-9 0 -12 7 -12 13s3 13 12 13c47 0 77 47 77 97v2h-160c-26 0 -34 15 -34 25c0 12 133 136 133 332c0 11 8 21 18 18c24 -7 49 -13 74 -13z" fill="currentColor"/>
</g>
<g transform="translate(22.7148, 4.5691)">
<rect x="-0.0628" y="-3.0000" width="0.1255" height="2.8626" ry="0.0400" fill="currentColor"/>
</g>
<g transform="translate(25.1776, 4.5691)">
<path transform="scale(0.0032, -0.0032)" d="M212 138c68 0 113 -38 113 -95c0 -90 -109 -181 -212 -181c-68 0 -113 38 -113 95c0 90 109 181 212 181z" fill="currentColor"/>
</g>
<g transform="translate(26.1578, 4.5691)">
<rect x="-0.0628" y="-3.0000" width="0.1255" height="2.8626" ry="0.0400" fill="currentColor"/>
</g>
<g transform="translate(28.6206, 4.5691)">
<path transform="scale(0.0032, -0.0032)" d="M212 138c68 0 113 -38 113 -95c0 -90 -109 -181 -212 -181c-68 0 -113 38 -113 95c0 90 109 181 212 181z" fill="currentColor"/>
</g>
<g transform="translate(36.3551, 4.5691)">
<path transform="scale(0.0032, -0.0032)" d="M212 138c68 0 113 -38 113 -95c0 -90 -109 -181 -212 -181c-68 0 -113 38 -113 95c0 90 109 181 212 181z" fill="currentColor"/>
</g>
<g transform="translate(33.1088, 4.5691)">
<path transform="scale(0.0032, -0.0032)" d="M231 0c-90 0 -91 68 -144 68c-29 0 -58 -21 -61 -56c-1 -8 -7 -12 -13 -12c-7 0 -13 5 -13 13c0 154 232 168 232 342c0 58 -14 119 -64 119c-27 0 -54 -13 -54 -38c0 -27 34 -40 34 -67c0 -37 -30 -67 -67 -67s-68 30 -68 67c0 77 74 131 155 131c96 0 186 -56 186 -145
c0 -147 -141 -158 -239 -213c6 1 11 1 17 1c85 0 112 -60 171 -60c49 0 38 40 57 40c7 0 13 -5 13 -13c0 -23 -45 -110 -142 -110z" fill="currentColor"/>
</g>
<g transform="translate(33.0576, 6.1825)">
<path transform="scale(0.0032, -0.0032)" d="M223 487c37 0 71 14 79 14c9 0 15 -7 15 -13c0 -2 0 -4 -2 -6l-283 -325h160v115c0 36 36 28 71 75c23 31 24 58 38 58c7 0 14 -5 14 -15v-233h76c11 0 16 -8 16 -16s-5 -16 -16 -16h-76v-2c0 -50 30 -97 77 -97c9 0 12 -7 12 -13s-3 -13 -12 -13c-46 0 -92 13 -138 13
s-93 -13 -139 -13c-9 0 -12 7 -12 13s3 13 12 13c47 0 77 47 77 97v2h-160c-26 0 -34 15 -34 25c0 12 133 136 133 332c0 11 8 21 18 18c24 -7 49 -13 74 -13z" fill="currentColor"/>
</g>
<g transform="translate(37.3353, 4.5691)">
<rect x="-0.0628" y="-2.7000" width="0.1255" height="2.5626" ry="0.0400" fill="currentColor"/>
</g>
<g transform="translate(38.5981, 4.5691)">
<path transform="scale(0.0032, -0.0032)" d="M212 138c68 0 113 -38 113 -95c0 -90 -109 -181 -212 -181c-68 0 -113 38 -113 95c0 90 109 181 212 181z" fill="currentColor"/>
</g>
<g transform="translate(39.5784, 4.5691)">
<rect x="-0.0628" y="-2.7000" width="0.1255" height="2.5626" ry="0.0400" fill="currentColor"/>
</g>
<g transform="translate(40.8411, 4.5691)">
<path transform="scale(0.0032, -0.0032)" d="M212 138c68 0 113 -38 113 -95c0 -90 -109 -181 -212 -181c-68 0 -113 38 -113 95c0 90 109 181 212 181z" fill="currentColor"/>
</g>
<g transform="translate(41.8214, 4.5691)">
<rect x="-0.0628" y="-2.7000" width="0.1255" height="2.5626" ry="0.0400" fill="currentColor"/>
</g>
<g transform="translate(44.0644, 4.5691)">
<rect x="-0.0628" y="-2.7000" width="0.1255" height="2.5626" ry="0.0400" fill="currentColor"/>
</g>
<g transform="translate(37.2726, 1.8691)">
<polygon stroke-linejoin="round" stroke-linecap="round" stroke-width="0.0800" fill="currentColor" stroke="currentColor" points="6.8146 -0.1760 6.8146 0.1760 0.0400 0.1760 0.0400 -0.1760"/>
</g>
</svg>
